<svg xmlns:xlink="http://www.w3.org/1999/xlink" width="2843.450395369303" xmlns="http://www.w3.org/2000/svg" id="screenshot" version="1.1" viewBox="-348.1717357121622 -1.9159032655086206 2843.450395369303 2044.2025483749674" height="2044.2025483749674" style="-webkit-print-color-adjust: exact;"><g id="shape-9d30efc0-54d5-11ec-a81b-3bbfb2759d87"><g id="shape-dd18c020-533d-11ec-89a5-7ba0c8e84d6f"><defs><linearGradient id="fill-color-gradient_b8c82b70-55f4-11ec-a9a4-f541e51871e6" x1="0.42" y1="-0.19" x2="0.61" y2="0.73" gradientTransform="matrix(0.934127278914791,0.3569400912079786,-0.3569400910697959,0.9341272792356095,0.2114064060775025,-0.145533685221794)"><stop offset="0" stop-color="#ffe600" stop-opacity="1"/><stop offset="1" stop-color="#ffac00" stop-opacity="0"/></linearGradient></defs><path d="M1369.1539593510242,914.6367969928162C1680.61645882633,715.3314009033064,1832.8921324992934,862.6467787932905,2209.1253396060656,1235.5989181402406C2585.358546712838,1608.5510574871917,2059.167025237287,2005.9265253632207,1545.8511817480949,1809.7830068842386C948.5382002334,1581.543276290514,1057.6914598757203,1113.9421930823255,1369.1539593510242,914.6367969928162Z" style="fill: url(&quot;#fill-color-gradient_b8c82b70-55f4-11ec-a9a4-f541e51871e6&quot;);"/></g><g id="shape-1ff1f0b0-533e-11ec-89a5-7ba0c8e84d6f"><defs><linearGradient id="fill-color-gradient_b8c8eec0-55f4-11ec-a9a4-f541e51871e6" x1="0.42" y1="-0.41" x2="0.58" y2="0.71" gradientTransform="matrix(0.17193173100729048,0.9851088684290531,-0.9851088687755105,0.1719317312765019,0.90658856888411,-0.07852029985277753)"><stop offset="0" stop-color="#ffe600" stop-opacity="1"/><stop offset="1" stop-color="#ffac00" stop-opacity="0"/></linearGradient></defs><path d="M132.96730199286958,587.7210047400117C340.74163437194784,725.945989082004,317.0347014243771,884.7433807553168,253.86711534717233,1280.4347559487555C190.69952926996757,1676.1261311421938,-191.3726287923273,1465.2149323313336,-265.25584806440156,1041.8898621482126C-351.2290486719053,549.2934168442182,-74.80703038620823,449.4960203980211,132.96730199286958,587.7210047400117Z" style="fill: url(&quot;#fill-color-gradient_b8c8eec0-55f4-11ec-a9a4-f541e51871e6&quot;);"/></g><g id="shape-2a0dada0-533e-11ec-89a5-7ba0c8e84d6f"><defs><linearGradient id="fill-color-gradient_b8c963f0-55f4-11ec-a9a4-f541e51871e6" x1="0.5" y1="0" x2="0.5" y2="1" gradientTransform="matrix(0.9341272728835054,0.356940107587422,-0.3569401074902604,0.9341272733116776,0.2114064173033775,-0.14553369044954978)"><stop offset="0" stop-color="#ffe600" stop-opacity="1"/><stop offset="1" stop-color="#ffac00" stop-opacity="0.73"/></linearGradient></defs><path d="M1229.759342871981,105.19260345505222C1376.5175509716628,10.235333659016533,1447.8614631587043,79.78645752217835,1624.1186157069633,255.88153365086123C1800.3757682552223,431.97660977954433,1552.3383923081592,621.144961396595,1311.3410589090036,529.0572818324895C1030.9077982263507,421.90070924880297,1083.0011347723002,200.1498732510879,1229.759342871981,105.19260345505222Z" style="fill: url(&quot;#fill-color-gradient_b8c963f0-55f4-11ec-a9a4-f541e51871e6&quot;);"/></g><g id="shape-02bef6f0-533e-11ec-89a5-7ba0c8e84d6f"><defs><linearGradient id="fill-color-gradient_b8c9b210-55f4-11ec-a9a4-f541e51871e6" x1="0.5" y1="0" x2="0.5" y2="1" gradientTransform="matrix(1.0000000005078884,-1.7453292541810122e-8,1.7453292528807594e-8,1.0000000012528754,-8.980590493479212e-9,8.100208614969517e-9)"><stop offset="0" stop-color="#ffe600" stop-opacity="1"/><stop offset="1" stop-color="#ffac00" stop-opacity="0.73"/></linearGradient></defs><path d="M533.9999999999995,710.0000000000003C578,635.0000000000003,617,656.0000000000003,714,710.0000000000003C810.9999999999991,764.0000000000003,741,905.0000000000005,631,905.0000000000005C502.99999999999955,905.0000000000005,489.99999999999955,785.0000000000003,533.9999999999995,710.0000000000003Z" style="fill: url(&quot;#fill-color-gradient_b8c9b210-55f4-11ec-a9a4-f541e51871e6&quot;);"/></g><g id="shape-ffd23740-533d-11ec-89a5-7ba0c8e84d6f"><defs><linearGradient id="fill-color-gradient_b8ca4e50-55f4-11ec-a9a4-f541e51871e6" x1="0.5" y1="0" x2="0.5" y2="1" gradientTransform="matrix(1.0000000005078877,1.6543612251060553e-23,6.617444900424222e-24,1.0000000012528751,-2.539438659354687e-10,-6.264375684850165e-10)"><stop offset="0" stop-color="#ffe600" stop-opacity="1"/><stop offset="1" stop-color="#ffac00" stop-opacity="0.73"/></linearGradient></defs><path d="M397.99999999999955,420.0000000000002C441.99999999999955,345.0000000000002,480.99999999999955,366.0000000000002,578,420.0000000000002C675,474.0000000000002,605,615.0000000000002,494.99999999999955,615.0000000000002C366.99999999999955,615.0000000000002,353.99999999999955,495.0000000000002,397.99999999999955,420.0000000000002Z" style="fill: url(&quot;#fill-color-gradient_b8ca4e50-55f4-11ec-a9a4-f541e51871e6&quot;);"/></g><g id="shape-f9596aa0-533d-11ec-89a5-7ba0c8e84d6f"><defs><linearGradient id="fill-color-gradient_b8cc2310-55f4-11ec-a9a4-f541e51871e6" x1="0.5" y1="0" x2="0.5" y2="1" gradientTransform="matrix(-0.46015771428400665,0.8878371813605923,0.8878371998325443,0.4601577143199327,0.2861602572257312,-0.1739974478402625)"><stop offset="0" stop-color="#ffe600" stop-opacity="1"/><stop offset="1" stop-color="#ffac00" stop-opacity="0.73"/></linearGradient></defs><path d="M1729.7355696577597,407.84637961893304C1701.4508178431624,408.3129879323915,1702.1626676223268,422.0893622287549,1704.4546162047936,456.62394065447006C1706.7465647872614,491.1585190801859,1758.1353774880263,493.72824309739485,1773.584849042616,463.9197335756767C1791.5624159425024,429.23346795040607,1758.020321472357,407.37977130547415,1729.7355696577597,407.84637961893304Z" style="fill: url(&quot;#fill-color-gradient_b8cc2310-55f4-11ec-a9a4-f541e51871e6&quot;);"/></g><g id="shape-0b1adb70-533e-11ec-89a5-7ba0c8e84d6f"><defs><linearGradient id="fill-color-gradient_b8cc9840-55f4-11ec-a9a4-f541e51871e6" x1="0.5" y1="0" x2="0.5" y2="1" gradientTransform="matrix(-0.4401059281211447,0.8979458528519308,-0.8979458630802363,-0.4401059445539378,1.1690258956006905,0.2710800458510035)"><stop offset="0" stop-color="#ffe600" stop-opacity="1"/><stop offset="1" stop-color="#ffac00" stop-opacity="0.73"/></linearGradient></defs><path d="M434.4812512634194,302.3956839881696C450.92739665442105,325.4123998770524,439.4286850895296,333.03308562106827,410.3019380527039,351.7286129578215C381.1751910158778,370.4241402945752,348.54776621390465,330.63890807066423,363.3240131760085,300.49100703365457C380.518191459184,265.4098130996799,418.03510587241817,279.3789680992868,434.4812512634194,302.3956839881696Z" style="fill: url(&quot;#fill-color-gradient_b8cc9840-55f4-11ec-a9a4-f541e51871e6&quot;);"/></g></g></svg>