<svg xmlns:xlink="http://www.w3.org/1999/xlink" width="2843.4503953693024" xmlns="http://www.w3.org/2000/svg" id="screenshot" version="1.1" viewBox="-2.414213562373095 -2.414213562373095 2843.4503953693024 2044.2025483749676" height="2044.2025483749676" style="-webkit-print-color-adjust: exact;"><g id="shape-9d30efc0-54d5-11ec-a81b-3bbfb2759d87"><g id="shape-dd18c020-533d-11ec-89a5-7ba0c8e84d6f"><defs><linearGradient id="fill-color-gradient_a7d5b2d0-54d5-11ec-be2a-e1a2c332c9ab" x1="0.5" y1="0" x2="0.5" y2="1" gradientTransform="matrix(0.9341272789147916,0.3569400912079789,-0.35694009106979585,0.9341272792356091,0.2114064060775021,-0.145533685221794)"><stop offset="0" stop-color="#c4d4ff" stop-opacity="1"/><stop offset="1" stop-color="#c9d7ff" stop-opacity="0"/></linearGradient></defs><path d="M1714.9114815008134,914.1384866959519C2026.3739809761191,714.833090606442,2178.6496546490825,862.1484684964262,2554.8828617558547,1235.100607843376C2931.1160688626264,1608.0527471903272,2404.924547387076,2005.4282150663562,1891.608703897884,1809.2846965873741C1294.295722383189,1581.0449659936496,1403.4489820255094,1113.443882785461,1714.9114815008134,914.1384866959519Z" style="fill: url(&quot;#fill-color-gradient_a7d5b2d0-54d5-11ec-be2a-e1a2c332c9ab&quot;);"/></g><g id="shape-1ff1f0b0-533e-11ec-89a5-7ba0c8e84d6f"><defs><linearGradient id="fill-color-gradient_a7d64f10-54d5-11ec-be2a-e1a2c332c9ab" x1="0.49" y1="0.05" x2="0.5" y2="1.03" gradientTransform="matrix(0.17193174820068377,0.9851088654282784,-0.9851088657747344,0.17193174846989492,0.9065885587870253,-0.07852030694908663)"><stop offset="0" stop-color="#c9d7ff" stop-opacity="1"/><stop offset="1" stop-color="#c9d7ff" stop-opacity="0"/></linearGradient></defs><path d="M478.72482414265835,587.2226944431474C686.4991565217366,725.4476787851396,662.7922235741659,884.2450704584525,599.6246374969613,1279.936445651891C536.4570514197563,1675.6278208453293,154.38489335746146,1464.716622034469,80.50167408538744,1041.3915518513481C-5.471526522116392,548.7951065473538,270.9504917635809,448.9977101011567,478.72482414265835,587.2226944431474Z" style="fill: url(&quot;#fill-color-gradient_a7d64f10-54d5-11ec-be2a-e1a2c332c9ab&quot;);"/></g><g id="shape-2a0dada0-533e-11ec-89a5-7ba0c8e84d6f"><path d="M1575.5168650217702,104.6942931581878C1722.2750731214524,9.737023362152064,1793.618985308493,79.28814722531392,1969.8761378567524,255.38322335399687C2146.1332904050114,431.47829948268003,1898.0959144579483,620.6466510997307,1657.0985810587927,528.558971535625C1376.6653203761393,421.40239895193866,1428.758656922089,199.65156295422352,1575.5168650217702,104.6942931581878Z" style="fill: rgb(201, 215, 255); fill-opacity: 1;"/></g><g id="shape-02bef6f0-533e-11ec-89a5-7ba0c8e84d6f"><path d="M879.7575221497885,709.501689703136C923.7575221497885,634.501689703136,962.7575221497885,655.501689703136,1059.7575221497887,709.501689703136C1156.7575221497882,763.501689703136,1086.7575221497887,904.5016897031361,976.7575221497885,904.5016897031361C848.7575221497885,904.5016897031361,835.7575221497885,784.501689703136,879.7575221497885,709.501689703136Z" style="fill: rgb(201, 215, 255); fill-opacity: 1;"/></g><g id="shape-ffd23740-533d-11ec-89a5-7ba0c8e84d6f"><path d="M743.7575221497885,419.5016897031358C787.7575221497885,344.5016897031358,826.7575221497885,365.5016897031358,923.7575221497885,419.5016897031358C1020.7575221497885,473.50168970313587,950.7575221497885,614.5016897031359,840.7575221497885,614.5016897031359C712.7575221497885,614.5016897031359,699.7575221497885,494.50168970313587,743.7575221497885,419.5016897031358Z" style="fill: rgb(181, 200, 255); fill-opacity: 1;"/></g><g id="shape-f9596aa0-533d-11ec-89a5-7ba0c8e84d6f"><path d="M2075.4930918075484,407.3480693220686C2047.208339992952,407.8146776355271,2047.920189772116,421.59105193189066,2050.212138354583,456.12563035760564C2052.50408693705,490.66020878332154,2103.892899637815,493.2299328005305,2119.3423711924047,463.42142327881237C2137.3199380922915,428.73515765354165,2103.7778436221456,406.88146100860973,2075.4930918075484,407.3480693220686Z" style="fill: rgb(201, 215, 255); fill-opacity: 1;"/></g><g id="shape-0b1adb70-533e-11ec-89a5-7ba0c8e84d6f"><path d="M780.2387734132084,301.89737369130523C796.68491880421,324.9140895801881,785.1862072393188,332.53477532420396,756.0594602024929,351.2303026609572C726.9327131656668,369.9258299977109,694.3052883636934,330.1405977737999,709.0815353257975,299.9926967367902C726.275713608973,264.91150280281545,763.7926280222069,278.8806578024223,780.2387734132084,301.89737369130523Z" style="fill: rgb(201, 215, 255); fill-opacity: 1;"/></g></g></svg>